<svg id="Group_88813" data-name="Group 88813" xmlns="http://www.w3.org/2000/svg" width="32.939" height="32.221" viewBox="0 0 32.939 32.221">
  <path id="Path_5993" data-name="Path 5993" d="M14.364,18.421H1.45a.42.42,0,1,1,0-.839H13.113a.473.473,0,1,0,0-.944H2.439V2.727H29.688V16.638h-3.23a.473.473,0,1,0,0,.944h4.4a.42.42,0,1,1,0,.839H25.3a.473.473,0,1,0,0,.944h5.563a1.366,1.366,0,1,0,0-2.727h-.167V2.727h.167a1.41,1.41,0,0,0,1.45-1.364A1.41,1.41,0,0,0,30.859,0H1.45A1.41,1.41,0,0,0,0,1.364,1.41,1.41,0,0,0,1.436,2.727V16.638a1.366,1.366,0,1,0,.014,2.727H14.364A.473.473,0,1,0,14.364,18.421ZM1.45.944H30.859a.42.42,0,1,1,0,.839H1.45a.42.42,0,1,1,0-.839Zm0,0" fill="#2c93b5"/>
  <path id="Path_5994" data-name="Path 5994" d="M62.858,59.275a.777.777,0,0,0-.8-.751H58.908a.777.777,0,0,0-.8.751v1.83a.777.777,0,0,0,.8.751h3.151a.777.777,0,0,0,.8-.751Zm-1,1.638H59.113V59.467h2.742Zm0,0" transform="translate(-54.221 -54.84)" fill="#2c93b5"/>
  <path id="Path_5995" data-name="Path 5995" d="M62.858,128.779a.777.777,0,0,0-.8-.751H58.908a.777.777,0,0,0-.8.751v1.83a.777.777,0,0,0,.8.752h3.151a.777.777,0,0,0,.8-.752Zm-1,1.638H59.113v-1.446h2.742Zm0,0" transform="translate(-54.221 -119.971)" fill="#2c93b5"/>
  <path id="Path_5996" data-name="Path 5996" d="M62.059,197.531H58.909a.777.777,0,0,0-.8.751v1.83a.777.777,0,0,0,.8.751h3.151a.777.777,0,0,0,.8-.751v-1.83A.777.777,0,0,0,62.059,197.531Zm-.2,2.39H59.113v-1.446h2.742Zm0,0" transform="translate(-54.221 -185.1)" fill="#2c93b5"/>
  <path id="Path_5997" data-name="Path 5997" d="M122.489,80.353a8.745,8.745,0,0,0-1.7-.486l-5.085-.93V77.756a4.953,4.953,0,0,0,2.369-3.67,1.394,1.394,0,0,0,1.326-1.351v-.97a1.265,1.265,0,0,0-.233-2.432v-.375a6.3,6.3,0,0,0-6.48-6.094h-.543a6.3,6.3,0,0,0-6.48,6.094v.374a1.265,1.265,0,0,0-.233,2.432v.97a1.394,1.394,0,0,0,1.326,1.351,4.946,4.946,0,0,0,2.369,3.671v1.181l-5.085.93a8.728,8.728,0,0,0-1.7.486c-2.063.835-3.07,2.168-3.07,4.051v.97a.5.5,0,0,0,1,0V84.4a3.167,3.167,0,0,1,2.182-3.068,18.39,18.39,0,0,1,.98,5.878v2.969h-2.121a1.012,1.012,0,0,1-1.041-.979V87.251a.5.5,0,0,0-1,0V89.2a1.987,1.987,0,0,0,2.045,1.923h22.207a1.987,1.987,0,0,0,2.045-1.923V84.4c0-1.883-1.007-3.216-3.07-4.051Zm-1.052.633a19.4,19.4,0,0,0-1.048,6.229v2.969h-7.477V87.806a3.26,3.26,0,0,1,.661-1.965c.648-.867,3.317-4.488,4.109-5.58a38.231,38.231,0,0,1,3.755.724ZM112.068,85.3c-.385-.515-.885-1.19-1.407-1.9a1.561,1.561,0,0,0,.448-.168l1.3-.734,1.3.734a1.561,1.561,0,0,0,.448.168c-.521.708-1.022,1.383-1.407,1.9a4.369,4.369,0,0,0-.342.534A4.337,4.337,0,0,0,112.068,85.3Zm-.682-3.323c-.795.4-.738.52-1.1.48a.8.8,0,0,1-.555-.318c-.6-.817-1.155-1.575-1.519-2.073l1.005-.184a4.647,4.647,0,0,0,2.168,2.094Zm5.222-1.91c-.365.5-.921,1.259-1.523,2.078a.757.757,0,0,1-.857.28l-.793-.447a4.646,4.646,0,0,0,2.168-2.094Zm-7.121-15.613v.592a.5.5,0,0,0,1,0v-1a5.756,5.756,0,0,1,1.418-.234v2.334a.5.5,0,0,0,1,0V63.812a5.763,5.763,0,0,1,1.418.234v1a.5.5,0,0,0,1,0v-.592a5.145,5.145,0,0,1,2.825,4.847h-11.5a5.175,5.175,0,0,1,2.825-4.847Zm-3.519,5.791h12.884a.342.342,0,1,1,0,.684H105.969A.342.342,0,1,1,105.969,70.243Zm1.755,3.365a.488.488,0,0,0-.5-.462c-.084-.02-.793.122-.793-.412V71.87h11.963v.864c0,.533-.728.4-.793.412a.488.488,0,0,0-.5.462,3.971,3.971,0,0,1-1.463,3.007,5.048,5.048,0,0,1-6.449,0,3.971,3.971,0,0,1-1.463-3.007Zm6.973,4.669v1.049c0,.844-1.523,1.737-2.286,2.1-.762-.361-2.282-1.252-2.286-2.1V78.277A6.1,6.1,0,0,0,114.7,78.277Zm-11.313,2.709c.586-.183.151-.042,3.755-.724l.287.392,1.146,1.564c.819,1.116,1.948,2.651,2.676,3.624a3.26,3.26,0,0,1,.661,1.965v2.378h-7.477V87.215a18.756,18.756,0,0,0-1.048-6.229ZM124.555,89.2a1.013,1.013,0,0,1-1.041.979h-2.121V87.215a19.092,19.092,0,0,1,.98-5.878,3.167,3.167,0,0,1,2.182,3.068v4.8Zm0,0" transform="translate(-92.62 -58.907)" fill="#2c93b5"/>
  <path id="Path_5998" data-name="Path 5998" d="M324.659,433.785a.835.835,0,0,0-.858.807v.946a.835.835,0,0,0,.858.807h2.951a.835.835,0,0,0,.858-.807v-.946a.835.835,0,0,0-.858-.807Zm2.806,1.616H324.8v-.672h2.66Zm0,0" transform="translate(-302.133 -406.486)" fill="#2c93b5"/>
</svg>
