<svg xmlns="http://www.w3.org/2000/svg" width="266.047" height="123.017" viewBox="0 0 266.047 123.017">
  <path id="Subtraction_34" data-name="Subtraction 34" d="M-1362,123.017h-59v-44a3,3,0,0,1,3-3h53a3,3,0,0,1,3,3v44Zm-64,0h-29.953l-.036-47H-1429a3,3,0,0,1,3,3Zm107-22h-35a3,3,0,0,1-3-3v-34a3,3,0,0,1,3-3h35a3,3,0,0,1,3,3v34A3,3,0,0,1-1319,101.015Zm38-8h-27a3,3,0,0,1-3-3v-26a3,3,0,0,1,3-3h27a3,3,0,0,1,3,3v26A3,3,0,0,1-1281,93.015Zm-84-24h-35a3,3,0,0,1-3-3v-35a3,3,0,0,1,3-3h35a3,3,0,0,1,3,3v35A3,3,0,0,1-1365,69.016Zm-46,0h-44.994L-1456.047,0-1408,0V66.015A3,3,0,0,1-1411,69.016Zm113-14h-56a3,3,0,0,1-3-3V0l62,0V52.016A3,3,0,0,1-1298,55.015Zm15-1h-4a3,3,0,0,1-3-3v-4a3,3,0,0,1,3-3h4a3,3,0,0,1,3,3v4A3,3,0,0,1-1283,54.015Zm52-12h-56a3,3,0,0,1-3-3V.007l62,0V39.015A3,3,0,0,1-1231,42.016Zm38-10h-27a3,3,0,0,1-3-3v-26a3,3,0,0,1,3-3h27a3,3,0,0,1,3,3v26A3,3,0,0,1-1193,32.016Zm-172-12h-35a3,3,0,0,1-3-3V0l41,0V17.015A3,3,0,0,1-1365,20.015Z" transform="translate(1456.047 0)" fill="#fff" opacity="0.12"/>
</svg>
