<svg xmlns="http://www.w3.org/2000/svg" width="33.777" height="31.765" viewBox="0 0 33.777 31.765">
  <g id="Group_88814" data-name="Group 88814" transform="translate(0)">
    <path id="Path_5958" data-name="Path 5958" d="M31.138,0H19.857a.641.641,0,0,0-.66.62.641.641,0,0,0,.66.62H31.138a1.283,1.283,0,0,1,1.319,1.241V20.1H14.473V16.855l1.352,1.278a3.072,3.072,0,0,0,4.009.129l1.907-1.572a1.924,1.924,0,0,0,.094-2.93,2.222,2.222,0,0,0-2.761-.191l-.9.62-2.1-1.984A6.689,6.689,0,0,0,12.36,10.45a3.3,3.3,0,0,0,.892-2.244V7.473a3.547,3.547,0,0,0-3.647-3.43,3.548,3.548,0,0,0-3.647,3.43v.733a3.3,3.3,0,0,0,.874,2.224,4.942,4.942,0,0,0-2.774,1.3,4.407,4.407,0,0,0-1.42,3.238V20.1H1.319V2.482A1.283,1.283,0,0,1,2.638,1.241H13.919a.641.641,0,0,0,.66-.62.641.641,0,0,0-.66-.62H2.638A2.567,2.567,0,0,0,0,2.482V22.334a2.567,2.567,0,0,0,2.639,2.482H13.589V27.3H12.4a3.978,3.978,0,0,0-4.09,3.846.641.641,0,0,0,.66.62H24.8a.641.641,0,0,0,.66-.62,3.978,3.978,0,0,0-4.09-3.846H20.187V24.816H31.138a2.567,2.567,0,0,0,2.639-2.482V2.482A2.567,2.567,0,0,0,31.138,0ZM7.278,7.473A2.264,2.264,0,0,1,9.605,5.284a2.264,2.264,0,0,1,2.328,2.189v.733A2.25,2.25,0,0,1,9.8,10.386h-.4a2.25,2.25,0,0,1-2.129-2.18Zm-3.32,7.493a3.212,3.212,0,0,1,1.034-2.36A3.635,3.635,0,0,1,7.5,11.627H8.946v2.255a.661.661,0,0,0,1.319,0V11.627h1.149a5.4,5.4,0,0,1,3.725,1.454l2.505,2.362a.691.691,0,0,0,.858.062l1.355-.936a.846.846,0,0,1,1.051.073.733.733,0,0,1-.036,1.116l-1.906,1.572a1.689,1.689,0,0,1-2.2-.071l-2.479-2.345a.691.691,0,0,0-.719-.136.622.622,0,0,0-.408.574V20.1H6.831v-3.37a.661.661,0,0,0-1.319,0V20.1H3.958ZM24.066,30.524H9.711A2.748,2.748,0,0,1,12.4,28.539h8.972a2.748,2.748,0,0,1,2.691,1.985Zm-5.2-3.226H14.909V24.816h3.958Zm13.59-4.963a1.283,1.283,0,0,1-1.319,1.241H2.638a1.283,1.283,0,0,1-1.319-1.241v-.993H32.457Zm0,0" transform="translate(0.001)" fill="#2c93b5"/>
    <path id="Path_5959" data-name="Path 5959" d="M246.66,1.241a.687.687,0,0,0,.466-.182.607.607,0,0,0,.193-.439.607.607,0,0,0-.193-.439.689.689,0,0,0-.933,0A.607.607,0,0,0,246,.62a.607.607,0,0,0,.193.439A.687.687,0,0,0,246.66,1.241Zm0,0" transform="translate(-229.771)" fill="#2c93b5"/>
    <path id="Path_5960" data-name="Path 5960" d="M246.66,353.241a.687.687,0,0,0,.466-.182.594.594,0,0,0,0-.877.689.689,0,0,0-.933,0,.594.594,0,0,0,0,.877A.687.687,0,0,0,246.66,353.241Zm0,0" transform="translate(-229.771 -330.162)" fill="#2c93b5"/>
    <path id="Path_5961" data-name="Path 5961" d="M3.3,436A3.208,3.208,0,0,0,0,439.1v.993a.641.641,0,0,0,.66.62H5.937a.641.641,0,0,0,.66-.62V439.1A3.208,3.208,0,0,0,3.3,436Zm1.979,3.474H1.319V439.1A1.925,1.925,0,0,1,3.3,437.241,1.925,1.925,0,0,1,5.278,439.1Zm0,0" transform="translate(0 -408.95)" fill="#2c93b5"/>
    <path id="Path_5962" data-name="Path 5962" d="M291.484,103.241h2.424a.622.622,0,1,0,0-1.241h-2.424a.622.622,0,1,0,0,1.241Zm0,0" transform="translate(-271.638 -95.672)" fill="#2c93b5"/>
    <path id="Path_5963" data-name="Path 5963" d="M373.188,102.62a.641.641,0,0,0,.66.62H378.1a.622.622,0,1,0,0-1.241h-4.252A.641.641,0,0,0,373.188,102.62Zm0,0" transform="translate(-348.568 -95.672)" fill="#2c93b5"/>
    <path id="Path_5964" data-name="Path 5964" d="M298.224,54h-6.741a.622.622,0,1,0,0,1.241h6.741a.622.622,0,1,0,0-1.241Zm0,0" transform="translate(-271.638 -50.65)" fill="#2c93b5"/>
    <path id="Path_5965" data-name="Path 5965" d="M439.126,55.059a.594.594,0,0,0,0-.877.689.689,0,0,0-.933,0,.594.594,0,0,0,0,.877.689.689,0,0,0,.933,0Zm0,0" transform="translate(-409.104 -50.65)" fill="#2c93b5"/>
    <path id="Path_5966" data-name="Path 5966" d="M291.484,151.241h9.684a.622.622,0,1,0,0-1.241h-9.684a.622.622,0,1,0,0,1.241Zm0,0" transform="translate(-271.638 -140.694)" fill="#2c93b5"/>
    <path id="Path_5967" data-name="Path 5967" d="M378.857,198h-4.2a.622.622,0,1,0,0,1.241h4.2a.622.622,0,1,0,0-1.241Zm0,0" transform="translate(-349.327 -185.716)" fill="#2c93b5"/>
  </g>
</svg>
