<svg xmlns="http://www.w3.org/2000/svg" width="18.319" height="20.001" viewBox="0 0 18.319 20.001">
  <path id="Icon_awesome-calendar-alt" data-name="Icon awesome-calendar-alt" d="M0,17.146A1.856,1.856,0,0,0,1.856,19H15.463a1.856,1.856,0,0,0,1.856-1.856V6.631H0ZM12.37,9.569a.465.465,0,0,1,.464-.464h1.546a.465.465,0,0,1,.464.464v1.546a.465.465,0,0,1-.464.464H12.834a.465.465,0,0,1-.464-.464Zm0,4.948a.465.465,0,0,1,.464-.464h1.546a.465.465,0,0,1,.464.464v1.546a.465.465,0,0,1-.464.464H12.834a.465.465,0,0,1-.464-.464ZM7.422,9.569A.465.465,0,0,1,7.886,9.1H9.432a.465.465,0,0,1,.464.464v1.546a.465.465,0,0,1-.464.464H7.886a.465.465,0,0,1-.464-.464Zm0,4.948a.465.465,0,0,1,.464-.464H9.432a.465.465,0,0,1,.464.464v1.546a.465.465,0,0,1-.464.464H7.886a.465.465,0,0,1-.464-.464ZM2.474,9.569A.465.465,0,0,1,2.938,9.1H4.484a.465.465,0,0,1,.464.464v1.546a.465.465,0,0,1-.464.464H2.938a.465.465,0,0,1-.464-.464Zm0,4.948a.465.465,0,0,1,.464-.464H4.484a.465.465,0,0,1,.464.464v1.546a.465.465,0,0,1-.464.464H2.938a.465.465,0,0,1-.464-.464ZM15.463,2.474H13.607V.619A.62.62,0,0,0,12.989,0H11.752a.62.62,0,0,0-.619.619V2.474H6.185V.619A.62.62,0,0,0,5.567,0H4.33a.62.62,0,0,0-.619.619V2.474H1.856A1.856,1.856,0,0,0,0,4.33V6.185H17.319V4.33A1.856,1.856,0,0,0,15.463,2.474Z" transform="translate(0.5 0.5)" fill="none" stroke="#fff" stroke-width="1"/>
</svg>
