<svg id="Group_88893" data-name="Group 88893" xmlns="http://www.w3.org/2000/svg" width="28.232" height="28.232" viewBox="0 0 28.232 28.232">
  <path id="Path_6022" data-name="Path 6022" d="M6.257,147.7l-.983,3.669-3.592.076a14.14,14.14,0,0,1-.1-13.181h0l3.2.586,1.4,3.178a8.424,8.424,0,0,0,.079,5.672Z" transform="translate(0 -130.644)" fill="#fbbb00"/>
  <path id="Path_6023" data-name="Path 6023" d="M275.187,208.176a14.11,14.11,0,0,1-5.032,13.645h0l-4.028-.206-.57-3.558a8.413,8.413,0,0,0,3.62-4.3h-7.548v-5.584h13.559Z" transform="translate(-247.202 -196.697)" fill="#518ef8"/>
  <path id="Path_6024" data-name="Path 6024" d="M51.779,317.471h0a14.12,14.12,0,0,1-21.271-4.319l4.574-3.745a8.4,8.4,0,0,0,12.1,4.3Z" transform="translate(-28.827 -292.348)" fill="#28b446"/>
  <path id="Path_6025" data-name="Path 6025" d="M50.172,3.25,45.6,6.994a8.394,8.394,0,0,0-12.375,4.4l-4.6-3.765h0A14.119,14.119,0,0,1,50.172,3.25Z" transform="translate(-27.046)" fill="#f14336"/>
</svg>
