<svg xmlns="http://www.w3.org/2000/svg" width="15.802" height="16.092" viewBox="0 0 15.802 16.092">
  <g id="Group_88831" data-name="Group 88831" transform="translate(-3.366)">
    <g id="Group_88826" data-name="Group 88826" transform="translate(3.366)">
      <g id="Group_88825" data-name="Group 88825">
        <path id="Path_5999" data-name="Path 5999" d="M11.3,0s-.013,0-.026,0A7.894,7.894,0,0,0,5.086,12.818L3.935,15.491a.429.429,0,0,0,.224.565.438.438,0,0,0,.246.03l4.221-.742a7.607,7.607,0,0,0,2.63.457A7.9,7.9,0,0,0,11.3,0ZM11.26,14.944A6.921,6.921,0,0,1,8.824,14.5a.413.413,0,0,0-.229-.022L5.043,15.1l.94-2.186a.434.434,0,0,0-.069-.453,6.893,6.893,0,0,1-1.2-1.992,7.039,7.039,0,1,1,13.594-2.6V7.89A7.059,7.059,0,0,1,11.26,14.944Z" transform="translate(-3.366)" fill="#fff"/>
      </g>
    </g>
    <g id="Group_88828" data-name="Group 88828" transform="translate(8.165 6.325)">
      <g id="Group_88827" data-name="Group 88827">
        <path id="Path_6000" data-name="Path 6000" d="M117.425,146.7H115.1a.431.431,0,1,0,0,.862h2.328a.431.431,0,1,0,0-.862Z" transform="translate(-114.666 -146.7)" fill="#fff"/>
      </g>
    </g>
    <g id="Group_88830" data-name="Group 88830" transform="translate(8.165 8.481)">
      <g id="Group_88829" data-name="Group 88829">
        <path id="Path_6001" data-name="Path 6001" d="M120.443,196.7H115.1a.431.431,0,1,0,0,.862h5.346a.431.431,0,1,0,0-.862Z" transform="translate(-114.666 -196.7)" fill="#fff"/>
      </g>
    </g>
  </g>
</svg>
