<svg xmlns="http://www.w3.org/2000/svg" width="41.645" height="31.806" viewBox="0 0 41.645 31.806">
  <g id="Group_88812" data-name="Group 88812" transform="translate(0 0)">
    <g id="Group_88781" data-name="Group 88781" transform="translate(0 0)">
      <g id="Group_88780" data-name="Group 88780">
        <path id="Path_5980" data-name="Path 5980" d="M41.035,78.755h-.694V65.226a.611.611,0,0,0-1.22,0V78.755H28.6V76.876a.593.593,0,0,0-.61-.574H27.3V62.121h11.82v.653a.611.611,0,0,0,1.22,0v-.653h.694a.621.621,0,0,0,.505-.252.545.545,0,0,0,.061-.535L38.993,55.2a.611.611,0,0,0-.566-.361H21.433V52.923h3.954A.593.593,0,0,0,26,52.35V49.284a.593.593,0,0,0-.61-.574H21.433v-.039a.611.611,0,0,0-1.22,0v6.171H3.218a.611.611,0,0,0-.566.361L.044,61.334a.545.545,0,0,0,.061.535.621.621,0,0,0,.505.252H1.3V75.65a.593.593,0,0,0,.61.574.593.593,0,0,0,.61-.574V62.121h11.82V76.3H13.65a.593.593,0,0,0-.61.574v1.879H2.524V78.1a.593.593,0,0,0-.61-.574.593.593,0,0,0-.61.574v.653H.61a.575.575,0,1,0,0,1.147H41.035a.575.575,0,1,0,0-1.147Zm-19.6-28.9h3.344v1.918H21.433Zm16.581,6.132,2.12,4.984H26.962l-4.77-4.984Zm-17.191.284,5.258,5.494V76.3H24.693V70.745a.593.593,0,0,0-.61-.574h-6.52a.593.593,0,0,0-.61.574V76.3H15.564V61.767h0Zm2.65,15.045V76.3h-5.3V71.318ZM1.511,60.973l2.12-4.984H19.453l-4.77,4.984ZM27.385,78.755H14.26V77.45H27.385Z" transform="translate(0 -48.097)" fill="#2c93b5"/>
      </g>
    </g>
    <g id="Group_88783" data-name="Group 88783" transform="translate(28.689 22.074)">
      <g id="Group_88782" data-name="Group 88782">
        <path id="Path_5981" data-name="Path 5981" d="M355.927,336.677h-2.608a.593.593,0,0,0-.61.574v3.679a.593.593,0,0,0,.61.574h2.608a.593.593,0,0,0,.61-.574v-3.679A.593.593,0,0,0,355.927,336.677Zm-.61,3.679h-1.388v-2.532h1.388Z" transform="translate(-352.709 -336.677)" fill="#2c93b5"/>
      </g>
    </g>
    <g id="Group_88785" data-name="Group 88785" transform="translate(33.905 22.074)">
      <g id="Group_88784" data-name="Group 88784">
        <path id="Path_5982" data-name="Path 5982" d="M420.057,336.677h-2.608a.593.593,0,0,0-.61.574v3.679a.593.593,0,0,0,.61.574h2.608a.593.593,0,0,0,.61-.574v-3.679A.593.593,0,0,0,420.057,336.677Zm-.61,3.679h-1.388v-2.532h1.388Z" transform="translate(-416.839 -336.677)" fill="#2c93b5"/>
      </g>
    </g>
    <g id="Group_88787" data-name="Group 88787" transform="translate(3.912 22.074)">
      <g id="Group_88786" data-name="Group 88786">
        <path id="Path_5983" data-name="Path 5983" d="M51.315,336.677H48.707a.593.593,0,0,0-.61.574v3.679a.593.593,0,0,0,.61.574h2.608a.593.593,0,0,0,.61-.574v-3.679A.593.593,0,0,0,51.315,336.677Zm-.61,3.679H49.317v-2.532h1.388Z" transform="translate(-48.097 -336.677)" fill="#2c93b5"/>
      </g>
    </g>
    <g id="Group_88789" data-name="Group 88789" transform="translate(9.128 22.074)">
      <g id="Group_88788" data-name="Group 88788">
        <path id="Path_5984" data-name="Path 5984" d="M115.444,336.677h-2.608a.593.593,0,0,0-.61.574v3.679a.593.593,0,0,0,.61.574h2.608a.593.593,0,0,0,.61-.574v-3.679A.593.593,0,0,0,115.444,336.677Zm-.61,3.679h-1.388v-2.532h1.388Z" transform="translate(-112.226 -336.677)" fill="#2c93b5"/>
      </g>
    </g>
    <g id="Group_88791" data-name="Group 88791" transform="translate(16.952 15.329)">
      <g id="Group_88790" data-name="Group 88790">
        <path id="Path_5985" data-name="Path 5985" d="M215.549,248.5h-6.52a.593.593,0,0,0-.61.574v4.292a.593.593,0,0,0,.61.574h6.52a.593.593,0,0,0,.61-.574v-4.292A.593.593,0,0,0,215.549,248.5Zm-3.87,4.292h-2.04v-3.145h2.04Zm3.26,0H212.9v-3.145h2.04Z" transform="translate(-208.419 -248.5)" fill="#2c93b5"/>
      </g>
    </g>
    <g id="Group_88793" data-name="Group 88793" transform="translate(18.908 10.424)">
      <g id="Group_88792" data-name="Group 88792">
        <path id="Path_5986" data-name="Path 5986" d="M234.382,184.371a1.8,1.8,0,1,0,1.914,1.8A1.862,1.862,0,0,0,234.382,184.371Zm0,2.453a.654.654,0,1,1,.694-.653A.675.675,0,0,1,234.382,186.824Z" transform="translate(-232.468 -184.371)" fill="#2c93b5"/>
      </g>
    </g>
    <g id="Group_88795" data-name="Group 88795" transform="translate(28.689 15.329)">
      <g id="Group_88794" data-name="Group 88794">
        <path id="Path_5987" data-name="Path 5987" d="M361.143,248.5h-7.824a.593.593,0,0,0-.61.574v4.292a.593.593,0,0,0,.61.574h7.824a.593.593,0,0,0,.61-.574v-4.292A.593.593,0,0,0,361.143,248.5Zm-5.826,4.292h-1.388v-3.145h1.388Zm2.608,0h-1.388v-3.145h1.388Zm2.608,0h-1.388v-3.145h1.388Z" transform="translate(-352.709 -248.5)" fill="#2c93b5"/>
      </g>
    </g>
    <g id="Group_88797" data-name="Group 88797" transform="translate(3.912 15.329)">
      <g id="Group_88796" data-name="Group 88796">
        <path id="Path_5988" data-name="Path 5988" d="M56.531,248.5H48.707a.593.593,0,0,0-.61.574v4.292a.593.593,0,0,0,.61.574h7.824a.593.593,0,0,0,.61-.574v-4.292A.593.593,0,0,0,56.531,248.5Zm-5.826,4.292H49.317v-3.145h1.388Zm2.608,0H51.925v-3.145h1.388Zm2.608,0H54.533v-3.145h1.388Z" transform="translate(-48.097 -248.5)" fill="#2c93b5"/>
      </g>
    </g>
    <g id="Group_88799" data-name="Group 88799" transform="translate(29.996 28.205)">
      <g id="Group_88798" data-name="Group 88798">
        <path id="Path_5989" data-name="Path 5989" d="M369.4,416.839h-.007a.615.615,0,1,0,.007,0Z" transform="translate(-368.783 -416.839)" fill="#2c93b5"/>
      </g>
    </g>
    <g id="Group_88801" data-name="Group 88801" transform="translate(5.213 28.205)">
      <g id="Group_88800" data-name="Group 88800">
        <path id="Path_5990" data-name="Path 5990" d="M64.7,416.839H64.7a.615.615,0,1,0,.007,0Z" transform="translate(-64.089 -416.839)" fill="#2c93b5"/>
      </g>
    </g>
    <g id="Group_88803" data-name="Group 88803" transform="translate(35.212 28.205)">
      <g id="Group_88802" data-name="Group 88802">
        <path id="Path_5991" data-name="Path 5991" d="M433.524,416.839h-.006a.615.615,0,1,0,.006,0Z" transform="translate(-432.911 -416.839)" fill="#2c93b5"/>
      </g>
    </g>
    <g id="Group_88805" data-name="Group 88805" transform="translate(10.429 28.205)">
      <g id="Group_88804" data-name="Group 88804">
        <path id="Path_5992" data-name="Path 5992" d="M128.831,416.839h-.007a.615.615,0,1,0,.007,0Z" transform="translate(-128.218 -416.839)" fill="#2c93b5"/>
      </g>
    </g>
  </g>
</svg>
