<svg xmlns="http://www.w3.org/2000/svg" width="182.497" height="68.023" viewBox="0 0 182.497 68.023">
  <g id="Group_88903" data-name="Group 88903" transform="translate(-193.02 0.523)">
    <path id="Subtraction_32" data-name="Subtraction 32" d="M31.022,275.5h-.008a173.031,173.031,0,0,1-43.875-5.209,120.383,120.383,0,0,1-20.829-7.518,99.214,99.214,0,0,1-18.963-11.688,180.363,180.363,0,0,1-21.476-20.209c-5.953-6.513-11.943-13.788-18.852-22.9l182,0v60.97c-9.038,1.933-18.083,3.464-26.884,4.551A255.248,255.248,0,0,1,31.022,275.5Z" transform="translate(286 -208)" fill="#ffba50"/>
    <path id="Subtraction_31" data-name="Subtraction 31" d="M29.785,265.5h-.008A173.031,173.031,0,0,1-14.1,260.291a120.383,120.383,0,0,1-20.829-7.518,99.216,99.216,0,0,1-18.963-11.688c-10.854-8.56-21.186-19.079-32.516-33.1l175.422,0v50.7c-9.187,2-18.39,3.591-27.353,4.722A256.019,256.019,0,0,1,29.785,265.5Z" transform="translate(286 -208)" fill="none" stroke="#fff" stroke-width="1" opacity="0.3"/>
    <path id="Subtraction_30" data-name="Subtraction 30" d="M33.023,265.5h-.007a179.105,179.105,0,0,1-43.875-5.024,123.3,123.3,0,0,1-20.83-7.25,99.9,99.9,0,0,1-18.963-11.272C-62,233.324-72.873,222.528-84.871,207.981l173.888,0v51.61A287.4,287.4,0,0,1,33.023,265.5Z" transform="translate(286 -208)" fill="#fff"/>
    <path id="Subtraction_29" data-name="Subtraction 29" d="M30.079,252.5h-.008A173.023,173.023,0,0,1-13.8,247.291a120.374,120.374,0,0,1-20.829-7.518A99.217,99.217,0,0,1-53.6,228.084a180.14,180.14,0,0,1-21.381-20.1l163.993,0v37.767c-9.152,1.986-18.317,3.561-27.242,4.682A255.82,255.82,0,0,1,30.079,252.5Z" transform="translate(286 -208)" fill="#2c93b5"/>
    <g id="Elements" transform="translate(48.388 -159)" opacity="0.2">
      <path id="Path_57" data-name="Path 57" d="M579.171,405.7l-5.209,2.307.222,2.72-3.349,1.483-.94-15.04,3.973-1.76,10.51,10.8-3.349,1.484Zm-5.44-.457,3.539-1.569-4.043-4.357Z" transform="translate(-326.129 -222.652)" fill="#fff"/>
      <g id="Group_48" data-name="Group 48" transform="translate(300.483 167.878)">
        <path id="Path_88" data-name="Path 88" d="M704.582,407.26a8.822,8.822,0,1,0,0,12.476A8.823,8.823,0,0,0,704.582,407.26Zm-10.916,10.917a6.617,6.617,0,1,1,9.357,0A6.617,6.617,0,0,1,693.666,418.177Z" transform="translate(-680.607 -404.677)" fill="#fff"/>
        <path id="Path_89" data-name="Path 89" d="M676.325,444.781a2.4,2.4,0,0,1-3.4,0h0a2.407,2.407,0,0,1,0-3.4l6.6-6.6a2.407,2.407,0,0,1,3.4,0h0a2.408,2.408,0,0,1,0,3.4Z" transform="translate(-672.218 -418.926)" fill="#fff"/>
        <path id="Path_90" data-name="Path 90" d="M686.737,436.8a.836.836,0,0,1-1.182,0h0a.835.835,0,0,1,0-1.181l4.8-4.8a.835.835,0,0,1,1.182,0h0a.835.835,0,0,1,0,1.182Z" transform="translate(-678.565 -417.23)" fill="#fff"/>
        <path id="Path_91" data-name="Path 91" d="M705.556,412.764a6.092,6.092,0,0,1,.357,8.224c.135-.112.268-.23.395-.356a6.094,6.094,0,1,0-8.618-8.618c-.127.127-.243.259-.357.4A6.09,6.09,0,0,1,705.556,412.764Z" transform="translate(-684.393 -407.369)" fill="#fff"/>
      </g>
    </g>
  </g>
</svg>
