<svg xmlns="http://www.w3.org/2000/svg" width="42.255" height="34.12" viewBox="0 0 42.255 34.12">
  <g id="Group_88811" data-name="Group 88811" transform="translate(0 0)">
    <path id="Path_5968" data-name="Path 5968" d="M42.254,12.135V9.374a1.4,1.4,0,0,0-1.438-1.353A1.953,1.953,0,0,1,39.471,7.5a1.728,1.728,0,0,1-.557-1.265V1.372A1.42,1.42,0,0,0,37.455,0H35.694a1.42,1.42,0,0,0-1.46,1.373V4.218A3.338,3.338,0,0,1,30.9,7.471a3.5,3.5,0,0,1-2.438-.916A3.078,3.078,0,0,1,27.446,4.28V1.372A1.42,1.42,0,0,0,25.986,0h-1.76a1.42,1.42,0,0,0-1.46,1.373V3.127a.62.62,0,0,0,1.238,0V1.372a.216.216,0,0,1,.222-.209h1.76a.216.216,0,0,1,.222.209V4.28a4.2,4.2,0,0,0,1.384,3.106,4.769,4.769,0,0,0,3.326,1.25,4.545,4.545,0,0,0,4.554-4.418V1.372a.216.216,0,0,1,.222-.209h1.761a.216.216,0,0,1,.222.209V6.233a2.85,2.85,0,0,0,.92,2.088,3.225,3.225,0,0,0,2.22.864.2.2,0,0,1,.2.189v2.405L30.84,16.371,20.664,11.78V9.374a.181.181,0,0,1,.06-.134.2.2,0,0,1,.141-.054A3.053,3.053,0,0,0,24,6.233V5.455a.62.62,0,0,0-1.238,0v.779a1.85,1.85,0,0,1-1.9,1.788,1.471,1.471,0,0,0-1.017.4,1.3,1.3,0,0,0-.421.957v2.752q0,.02,0,.039v9.672l-3.183,1.794a3.134,3.134,0,0,0-1.482-.372H11.067V13.2H14.76a2.894,2.894,0,0,0,2.975-2.8,2.894,2.894,0,0,0-2.975-2.8h-.648V6.972a2.363,2.363,0,0,0-2.429-2.284h-.615V3.546a1.244,1.244,0,0,0-1.279-1.2H7.947a1.244,1.244,0,0,0-1.279,1.2V4.687H6.052A2.363,2.363,0,0,0,3.623,6.972v.636H2.974a3.163,3.163,0,0,0-.8.1.579.579,0,0,0-.43.717.625.625,0,0,0,.763.4,1.842,1.842,0,0,1,.468-.06H14.76A1.69,1.69,0,0,1,16.5,10.405a1.69,1.69,0,0,1-1.737,1.633H2.974a1.69,1.69,0,0,1-1.737-1.633,1.577,1.577,0,0,1,.025-.276.587.587,0,0,0-.507-.671.616.616,0,0,0-.714.477,2.672,2.672,0,0,0-.042.47,2.894,2.894,0,0,0,2.975,2.8H6.668V23.259H2.974A2.894,2.894,0,0,0,0,26.057a2.7,2.7,0,0,0,.872,1.979,3.057,3.057,0,0,0,2.1.819h.649v.635a2.363,2.363,0,0,0,2.429,2.285h.616v1.141a1.244,1.244,0,0,0,1.279,1.2H9.788a1.244,1.244,0,0,0,1.279-1.2V31.775h.025a4.173,4.173,0,0,0,.423.449,4.429,4.429,0,0,0,3.009,1.152H36.839A2.3,2.3,0,0,0,39.2,31.154V27.706h.33a2.648,2.648,0,0,0,2.722-2.56V12.135ZM7.906,3.546a.04.04,0,0,1,.041-.039H9.788a.04.04,0,0,1,.041.039V4.687H7.906ZM4.861,7.607V6.972a1.159,1.159,0,0,1,1.192-1.12h5.63a1.159,1.159,0,0,1,1.192,1.12v.636Zm21.1,12.915a.661.661,0,0,1,.62.409,5.14,5.14,0,0,0,9.487-.088.5.5,0,0,1,.476-.32h.385a1.012,1.012,0,0,1,1.04.978v7.333h-8.57L27.364,26.1a.644.644,0,0,0-.862-.144.561.561,0,0,0-.153.81l1.536,2.069H26.4l-3.823-5.153,1.047-.591,1.309,1.765a.631.631,0,0,0,.508.249.641.641,0,0,0,.353-.1.561.561,0,0,0,.154-.81l-1.318-1.776a1.993,1.993,0,0,0,.554-1.364v-.527Zm-2.509,8.311-2.953-3.98,1.017-.573,3.378,4.553Zm-3,0-2.07-2.789,1.047-.59,2.508,3.38H20.452ZM14.72,25.847a1.229,1.229,0,0,0,.108.156,2.157,2.157,0,0,0,1.673.775,2.215,2.215,0,0,0,.8-.15l1.638,2.207H11.5a2.909,2.909,0,0,1,1.447-1.986Zm9.227-5.2v.4a.88.88,0,0,1-.448.754l-.033.019-2.078,1.171-.032.018L19.3,24.172l-.012.007L16.948,25.5a.908.908,0,0,1-1.138-.2.042.042,0,0,1-.009-.037.044.044,0,0,1,.021-.03l.709-.4.025-.014,7.364-4.151.028-.015ZM7.906,13.2H9.829V23.259H7.906ZM4.861,29.491v-.636h3.5a.583.583,0,1,0,0-1.164H2.975a1.785,1.785,0,0,1-1.228-.478,1.58,1.58,0,0,1-.509-1.156,1.69,1.69,0,0,1,1.737-1.634H14.761l.075,0-2.527,1.425a4.028,4.028,0,0,0-2.094,3.476,3.821,3.821,0,0,0,.166,1.116l0,.014,0,.009c.015.05.032.1.049.148H6.052a1.159,1.159,0,0,1-1.191-1.121Zm4.968,3.426a.04.04,0,0,1-.041.039H7.947a.04.04,0,0,1-.041-.039V31.775H9.829Zm28.135-1.762a1.1,1.1,0,0,1-1.126,1.059c-14.278,0-22.331,0-22.4,0A3.039,3.039,0,0,1,11.537,30H37.964Zm1.568-4.612H39.2V21.5a2.216,2.216,0,0,0-2.278-2.142H36.54a1.736,1.736,0,0,0-1.648,1.11,3.874,3.874,0,0,1-7.151.067,1.9,1.9,0,0,0-1.784-1.176c-1.38.033-1.906-.127-2.674.3l-2.619,1.476V13.071l9.908,4.471a.654.654,0,0,0,.535,0l9.909-4.471V25.147a1.443,1.443,0,0,1-1.484,1.4Zm0,0" transform="translate(0.001 0)" fill="#2c93b5"/>
    <path id="Path_5969" data-name="Path 5969" d="M354.367,132.145h-.416a.583.583,0,1,0,0,1.164h.131v2.013h-.075a.583.583,0,1,0,0,1.164H355.4a.583.583,0,1,0,0-1.164h-.075v-2.281A.927.927,0,0,0,354.367,132.145Zm0,0" transform="translate(-324.172 -121.889)" fill="#2c93b5"/>
  </g>
</svg>
