<svg xmlns="http://www.w3.org/2000/svg" width="26.339" height="18.437" viewBox="0 0 26.339 18.437">
  <path id="Icon_awesome-cloud-upload-alt" data-name="Icon awesome-cloud-upload-alt" d="M22.125,10.259a3.956,3.956,0,0,0-3.687-5.375,3.931,3.931,0,0,0-2.194.667A6.585,6.585,0,0,0,3.951,8.835c0,.111,0,.222.008.333A5.928,5.928,0,0,0,5.926,20.687H21.071a5.267,5.267,0,0,0,1.054-10.429ZM16.19,12.786H13.5v4.609a.66.66,0,0,1-.658.658H10.865a.66.66,0,0,1-.658-.658V12.786H7.515a.657.657,0,0,1-.465-1.124l4.338-4.338a.661.661,0,0,1,.93,0l4.338,4.338a.658.658,0,0,1-.465,1.124Z" transform="translate(0 -2.25)" fill="#2c93b5"/>
</svg>
