<svg xmlns="http://www.w3.org/2000/svg" width="208.495" height="110.024" viewBox="0 0 208.495 110.024">
  <g id="Group_88901" data-name="Group 88901" transform="translate(1.296 -702.476)">
    <path id="Subtraction_22" data-name="Subtraction 22" d="M-651.142,98.024H-848.581l.278-88.338C-832.813,5.267-809.044,0-783.768,0a143.009,143.009,0,0,1,40.359,5.368,103.282,103.282,0,0,1,19.161,7.747A90.216,90.216,0,0,1-706.805,25.16c20.184,17.834,35.64,41.816,50.587,65.007l.009.015c1.66,2.576,3.377,5.24,5.066,7.841v0h0Z" transform="translate(848 713.976)" fill="#2c93b5" opacity="0.5"/>
    <path id="Subtraction_23" data-name="Subtraction 23" d="M-642.728,109.024H-849.795l.316-99.338C-833.812,5.267-809.772,0-784.206,0a146.194,146.194,0,0,1,40.82,5.368,105.149,105.149,0,0,1,19.38,7.747A91.289,91.289,0,0,1-706.363,25.16c20.414,17.834,36.048,41.818,51.167,65.012,4.068,6.241,8.274,12.693,12.467,18.851Z" transform="translate(849 702.976)" fill="none" stroke="#ffba50" stroke-width="1" opacity="0.5"/>
    <path id="Subtraction_24" data-name="Subtraction 24" d="M-744.446,92.667H-926.509l.205-65.336c15.457-4.42,39.176-9.687,64.4-9.687a142.435,142.435,0,0,1,40.275,5.368,102.943,102.943,0,0,1,19.121,7.747A90.027,90.027,0,0,1-785.1,42.8a180.354,180.354,0,0,1,21.733,23.341c5.833,7.365,11.668,15.545,18.92,26.522Z" transform="translate(926 719.333)" fill="#2c93b5" opacity="0.5"/>
  </g>
</svg>
