<svg xmlns="http://www.w3.org/2000/svg" width="227.545" height="115.5" viewBox="0 0 227.545 115.5">
  <g id="Group_88900" data-name="Group 88900" transform="translate(-147.955 0.5)">
    <path id="Subtraction_21" data-name="Subtraction 21" d="M-536.216,485.5h-.013a172.991,172.991,0,0,1-43.865-5.208,120.39,120.39,0,0,1-20.831-7.518,99.233,99.233,0,0,1-18.965-11.689c-21.941-17.3-38.743-40.574-54.991-63.077l-.006-.008c-4.547-6.3-9.249-12.81-13.93-19H-468v97.589C-484.393,480.654-509.534,485.5-536.216,485.5Z" transform="translate(843 -379)" fill="#ffba50" opacity="0.5"/>
    <path id="Subtraction_19" data-name="Subtraction 19" d="M-538.214,418.5a173.056,173.056,0,0,1-43.879-5.209,120.387,120.387,0,0,1-20.832-7.518,99.22,99.22,0,0,1-18.964-11.689c-21.943-17.305-38.746-40.577-55-63.082l-.007-.01c-6.825-9.453-13.271-18.381-20.117-26.992H-471V409.835C-487.164,413.788-511.945,418.5-538.214,418.5Z" transform="translate(846 -304)" fill="none" stroke="#2c93b5" stroke-width="1" opacity="0.5"/>
    <path id="Subtraction_17" data-name="Subtraction 17" d="M-505.921,660h-.007a173.033,173.033,0,0,1-43.875-5.209,120.38,120.38,0,0,1-20.829-7.518A99.214,99.214,0,0,1-589.6,635.585C-609.614,619.8-625.152,599.337-640.616,578H-435.5l-.256,72.6C-452.6,654.888-478.437,660-505.921,660Z" transform="translate(811 -578)" fill="#ffba50" opacity="0.5"/>
  </g>
</svg>
