<svg xmlns="http://www.w3.org/2000/svg" width="48.921" height="47.561" viewBox="0 0 48.921 47.561">
  <g id="Outline" transform="translate(0 0)">
    <path id="Path_5855" data-name="Path 5855" d="M45.921,38.677,34.3,27.058l3.453-3.453-1.126-1.127L18.274,40.833a.8.8,0,0,0,0,1.127,5.309,5.309,0,0,0,7.5,0l1.171-1.171a8.19,8.19,0,0,0,6.444.354l8.123,8.123a1.457,1.457,0,1,1-2.06,2.06l-5.712-5.712L32.613,46.74l5.712,5.712a1.456,1.456,0,1,1-2.06,2.06L30.553,48.8l-1.127,1.127,5.712,5.712a1.456,1.456,0,1,1-2.06,2.06l-5.712-5.712L26.24,53.112l5.712,5.712a1.456,1.456,0,1,1-2.06,2.06L12,42.99,23.617,31.371l.881.881,1.127-1.127L9.842,15.343,8.716,16.47,19.3,27.058,7.686,38.677,3.47,34.461,2.343,35.587,16.118,49.362l-1.963,1.963a1.455,1.455,0,0,1-2.06,0,1.475,1.475,0,0,1,0-2.059l.933-.933L11.9,47.206l-.933.933a3.05,3.05,0,0,0,2.156,5.206c.047,0,.093,0,.139,0,0,.046,0,.093,0,.139a3.05,3.05,0,0,0,3.05,3.05c.047,0,.094,0,.14,0,0,.046,0,.093,0,.139a3.05,3.05,0,0,0,3.05,3.05c.047,0,.093,0,.14,0,0,.046,0,.093,0,.139A3.049,3.049,0,0,0,24.84,62.01L26.8,60.048l1.963,1.963a3.05,3.05,0,0,0,5.206-2.156c0-.047,0-.093,0-.139.046,0,.093,0,.139,0a3.05,3.05,0,0,0,3.05-3.05c0-.047,0-.094,0-.14.047,0,.093,0,.139,0a3.05,3.05,0,0,0,3.05-3.05c0-.047,0-.094,0-.14.047,0,.093,0,.139,0a3.05,3.05,0,0,0,2.156-5.206L34.9,40.4q.1-.06.191-.123l.915-.61-.884-1.326-.915.61a6.572,6.572,0,0,1-7,.166.8.8,0,0,0-.973.119l-1.593,1.593a3.717,3.717,0,0,1-4.622.5l9.965-9.964L41.608,42.99l-1.03,1.03,1.127,1.127,9.559-9.559-1.127-1.127ZM8.812,39.8,20.431,28.185l2.06,2.06L10.872,41.863Zm8.529,14.708a1.474,1.474,0,0,1-.473.31,1.453,1.453,0,0,1-1.587-2.37l1.963-1.963,2.06,2.06ZM20.528,57.7a1.4,1.4,0,0,1-.473.31,1.453,1.453,0,0,1-1.586-2.37l1.963-1.962,2.06,2.06Zm3.186,3.186a1.456,1.456,0,1,1-2.06-2.06l1.963-1.963,2.06,2.06ZM42.735,41.863,31.116,30.245l2.06-2.06L44.795,39.8Zm1.03-26.52,1.127,1.127L38.851,22.51l-1.126-1.127Zm2.156,19.681a2.39,2.39,0,1,0-2.39-2.39A2.39,2.39,0,0,0,45.921,35.024Zm0-3.186a.8.8,0,1,1-.8.8A.8.8,0,0,1,45.921,31.838Zm-35.846.8a2.39,2.39,0,1,0-2.39,2.39,2.39,2.39,0,0,0,2.39-2.39Zm-3.186,0a.8.8,0,1,1,.8.8A.8.8,0,0,1,6.889,32.634Zm4.779,23.1v1.593a5.582,5.582,0,0,1-5.576-5.576H7.686a3.987,3.987,0,0,0,3.983,3.983Zm34.253-3.983h1.593a5.582,5.582,0,0,1-5.576,5.576V55.735A3.987,3.987,0,0,0,45.921,51.752Z" transform="translate(-2.343 -15.343)" fill="#ffba50"/>
  </g>
</svg>
