<svg id="Group_88727" data-name="Group 88727" xmlns="http://www.w3.org/2000/svg" width="46.121" height="45.672" viewBox="0 0 46.121 45.672">
  <g id="Group_88726" data-name="Group 88726" transform="translate(0 0)">
    <path id="Path_5870" data-name="Path 5870" d="M45.741,8.089,40.3,2.9a1.1,1.1,0,0,0-.821-.4H17.665A1.157,1.157,0,0,0,16.51,3.648V7.2L8.823,8.514A1.139,1.139,0,0,0,7.9,9.827l.39,2.275c-2.5.841-5.064,1.708-7.54,2.6a1.144,1.144,0,0,0-.683,1.453L4.991,29.846a.676.676,0,0,0,1.271-.457L1.41,15.9c2.333-.835,4.749-1.653,7.11-2.448l2.321,13.534L13.513,42.57a1.144,1.144,0,0,0,1.313.926l7.235-1.242,5.653-.969-8.5,3.056-6.705,2.411L7.3,32.269a.676.676,0,0,0-1.271.457l5.281,14.69a1.141,1.141,0,0,0,1.069.749,1.118,1.118,0,0,0,.384-.068l6.907-2.483,15.682-5.637,3-.514h6.618a1.158,1.158,0,0,0,1.155-1.158V8.851a.972.972,0,0,0-.38-.761Zm-1.79.16H40.487c-.162,0-.541,0-.637-.092a.38.38,0,0,1-.048-.233l-.008-3.641Zm.818,29.863H17.861V24.945a.676.676,0,0,0-1.351,0v13.36a1.158,1.158,0,0,0,1.155,1.158H30.349l-8.517,1.46-7.025,1.206L12.173,26.755,9.267,9.808l7.243-1.242V21.811a.676.676,0,1,0,1.351,0V3.844H38.442l.009,4.083a1.609,1.609,0,0,0,.447,1.19,2.066,2.066,0,0,0,1.5.484H44.77Z" transform="translate(0 -2.493)" fill="#ffba50"/>
    <path id="Path_5871" data-name="Path 5871" d="M234.43,112.125a.676.676,0,0,0,.676.676h19.316a.676.676,0,0,0,0-1.351H235.106A.676.676,0,0,0,234.43,112.125Z" transform="translate(-213.313 -101.634)" fill="#ffba50"/>
    <path id="Path_5872" data-name="Path 5872" d="M254.422,164.731H235.106a.676.676,0,1,0,0,1.351h19.316a.676.676,0,0,0,0-1.351Z" transform="translate(-213.313 -150.117)" fill="#ffba50"/>
    <path id="Path_5873" data-name="Path 5873" d="M254.422,218.013H235.106a.676.676,0,0,0,0,1.351h19.316a.676.676,0,0,0,0-1.351Z" transform="translate(-213.313 -198.599)" fill="#ffba50"/>
    <path id="Path_5874" data-name="Path 5874" d="M254.422,271.3H235.106a.676.676,0,0,0,0,1.351h19.316a.676.676,0,0,0,0-1.351Z" transform="translate(-213.313 -247.081)" fill="#ffba50"/>
    <path id="Path_5875" data-name="Path 5875" d="M254.422,324.578H235.106a.676.676,0,0,0,0,1.351h19.316a.676.676,0,0,0,0-1.351Z" transform="translate(-213.313 -295.565)" fill="#ffba50"/>
  </g>
</svg>
