<svg xmlns="http://www.w3.org/2000/svg" width="91.453" height="74" viewBox="0 0 91.453 74">
  <g id="Group_88903" data-name="Group 88903" transform="translate(-262.986 -343.999)">
    <path id="Subtraction_14" data-name="Subtraction 14" d="M14.359,0H.305A47.722,47.722,0,0,0,0,5.4,46.221,46.221,0,0,0,3.182,22.37,43.79,43.79,0,0,0,11.862,36.23a40.341,40.341,0,0,0,12.874,9.344,37.979,37.979,0,0,0,31.529,0A40.35,40.35,0,0,0,69.138,36.23,43.791,43.791,0,0,0,77.817,22.37,46.214,46.214,0,0,0,81,5.4,47.667,47.667,0,0,0,80.694,0H66.641a30.941,30.941,0,0,1,.474,5.4c0,15.8-11.939,28.652-26.614,28.652S13.886,21.2,13.886,5.4A30.9,30.9,0,0,1,14.359,0Z" transform="translate(343.986 417) rotate(180)" fill="#2c93b5" opacity="0.06"/>
    <path id="Subtraction_17" data-name="Subtraction 17" d="M-14021.376-5919h0c-6.75,0-14.551-.261-18.6-.416a43.936,43.936,0,0,1-7.814-12.868A46.143,46.143,0,0,1-14051-5949.3a46.144,46.144,0,0,1,3.206-17.011,43.856,43.856,0,0,1,8.738-13.894,40.619,40.619,0,0,1,12.959-9.366,38.2,38.2,0,0,1,15.872-3.435,38.432,38.432,0,0,1,8.153.871v15.474a25.032,25.032,0,0,0-8.153-1.358c-14.775,0-26.8,12.883-26.8,28.719s12.021,28.718,26.8,28.718a25.287,25.287,0,0,0,3.872-.3,9.565,9.565,0,0,1-3.347,1.312A76.312,76.312,0,0,1-14021.376-5919Z" transform="translate(14356.512 6337)" fill="#2c93b5" opacity="0.06"/>
  </g>
</svg>
