<svg xmlns="http://www.w3.org/2000/svg" width="118" height="88.896" viewBox="0 0 118 88.896">
  <g id="Group_88906" data-name="Group 88906" transform="translate(-20 -196)">
    <path id="Subtraction_3" data-name="Subtraction 3" d="M-4104.386,59H-4122.6a53.412,53.412,0,0,1-.4-6.5,52.185,52.185,0,0,1,4.125-20.435,52.331,52.331,0,0,1,11.251-16.688,52.327,52.327,0,0,1,16.688-11.251A52.169,52.169,0,0,1-4070.5,0a52.175,52.175,0,0,1,20.435,4.126,52.34,52.34,0,0,1,16.688,11.251,52.343,52.343,0,0,1,11.251,16.688A52.178,52.178,0,0,1-4018,52.5a53.4,53.4,0,0,1-.4,6.5h-18.218a34.676,34.676,0,0,0,.614-6.5A34.539,34.539,0,0,0-4070.5,18,34.539,34.539,0,0,0-4105,52.5a34.611,34.611,0,0,0,.614,6.5Z" transform="translate(4156 225)" fill="#2c93b5" opacity="0.05"/>
    <path id="Subtraction_4" data-name="Subtraction 4" d="M-4095.628,96.494h0c-7.5,0-12.556-.229-15.036-.68a12.9,12.9,0,0,1-4.308-1.575,34.783,34.783,0,0,0,4.986.359,34.539,34.539,0,0,0,34.5-34.5,34.539,34.539,0,0,0-34.5-34.5,34.381,34.381,0,0,0-10.5,1.633V8.645a52.9,52.9,0,0,1,10.5-1.047,52.169,52.169,0,0,1,20.435,4.126,52.342,52.342,0,0,1,16.688,11.251,52.343,52.343,0,0,1,11.251,16.688,52.172,52.172,0,0,1,4.125,20.435,52.172,52.172,0,0,1-4.125,20.435,52.31,52.31,0,0,1-10.061,15.459C-4076.884,96.18-4086.924,96.494-4095.628,96.494Z" transform="translate(4140.486 188.402)" fill="#2c93b5" opacity="0.05"/>
  </g>
</svg>
