<svg id="Group_88870" data-name="Group 88870" xmlns="http://www.w3.org/2000/svg" width="44.637" height="44.637" viewBox="0 0 44.637 44.637">
  <g id="Group_88729" data-name="Group 88729" transform="translate(0)">
    <path id="Path_5884" data-name="Path 5884" d="M11.852,33.485A.485.485,0,0,0,11.367,33H7.485A.485.485,0,0,0,7,33.485v3.882a.485.485,0,0,0,.485.485h3.882a.485.485,0,0,0,.485-.485Zm-.97,3.4H7.97V33.97h2.911Z" transform="translate(-4.574 -17.959)" fill="#ffba50"/>
    <path id="Path_5885" data-name="Path 5885" d="M24.852,33.485A.485.485,0,0,0,24.367,33H20.485a.485.485,0,0,0-.485.485v3.882a.485.485,0,0,0,.485.485h3.882a.485.485,0,0,0,.485-.485Zm-.97,3.4H20.97V33.97h2.911Z" transform="translate(-11.267 -17.959)" fill="#ffba50"/>
    <path id="Path_5886" data-name="Path 5886" d="M11.852,46.485A.485.485,0,0,0,11.367,46H7.485A.485.485,0,0,0,7,46.485v3.882a.485.485,0,0,0,.485.485h3.882a.485.485,0,0,0,.485-.485Zm-.97,3.4H7.97V46.97h2.911Z" transform="translate(-4.574 -24.652)" fill="#ffba50"/>
    <path id="Path_5887" data-name="Path 5887" d="M24.852,46.485A.485.485,0,0,0,24.367,46H20.485a.485.485,0,0,0-.485.485v3.882a.485.485,0,0,0,.485.485h3.882a.485.485,0,0,0,.485-.485Zm-.97,3.4H20.97V46.97h2.911Z" transform="translate(-11.267 -24.652)" fill="#ffba50"/>
    <path id="Path_5888" data-name="Path 5888" d="M11.367,59H7.485A.485.485,0,0,0,7,59.485v3.882a.485.485,0,0,0,.485.485h3.882a.485.485,0,0,0,.485-.485V59.485A.485.485,0,0,0,11.367,59Zm-.485,3.882H7.97V59.97h2.911Z" transform="translate(-4.574 -31.344)" fill="#ffba50"/>
    <path id="Path_5889" data-name="Path 5889" d="M24.367,59H20.485a.485.485,0,0,0-.485.485v3.882a.485.485,0,0,0,.485.485h3.882a.485.485,0,0,0,.485-.485V59.485A.485.485,0,0,0,24.367,59Zm-.485,3.882H20.97V59.97h2.911Z" transform="translate(-11.267 -31.344)" fill="#ffba50"/>
    <path id="Path_5890" data-name="Path 5890" d="M42.367,7H38.485A.485.485,0,0,0,38,7.485v3.882a.485.485,0,0,0,.485.485h3.882a.485.485,0,0,0,.485-.485V7.485A.485.485,0,0,0,42.367,7Zm-.485,3.882H38.97V7.97h2.911Z" transform="translate(-20.533 -4.574)" fill="#ffba50"/>
    <path id="Path_5891" data-name="Path 5891" d="M51.485,11.852h3.882a.485.485,0,0,0,.485-.485V7.485A.485.485,0,0,0,55.367,7H51.485A.485.485,0,0,0,51,7.485v3.882A.485.485,0,0,0,51.485,11.852ZM51.97,7.97h2.911v2.911H51.97Z" transform="translate(-27.226 -4.574)" fill="#ffba50"/>
    <path id="Path_5892" data-name="Path 5892" d="M64.485,11.852h3.882a.485.485,0,0,0,.485-.485V7.485A.485.485,0,0,0,68.367,7H64.485A.485.485,0,0,0,64,7.485v3.882A.485.485,0,0,0,64.485,11.852ZM64.97,7.97h2.911v2.911H64.97Z" transform="translate(-33.918 -4.574)" fill="#ffba50"/>
    <path id="Path_5893" data-name="Path 5893" d="M42.367,20H38.485a.485.485,0,0,0-.485.485v3.882a.485.485,0,0,0,.485.485h3.882a.485.485,0,0,0,.485-.485V20.485A.485.485,0,0,0,42.367,20Zm-.485,3.882H38.97V20.97h2.911Z" transform="translate(-20.533 -11.267)" fill="#ffba50"/>
    <path id="Path_5894" data-name="Path 5894" d="M51.485,24.852h3.882a.485.485,0,0,0,.485-.485V20.485A.485.485,0,0,0,55.367,20H51.485a.485.485,0,0,0-.485.485v3.882A.485.485,0,0,0,51.485,24.852Zm.485-3.882h2.911v2.911H51.97Z" transform="translate(-27.226 -11.267)" fill="#ffba50"/>
    <path id="Path_5895" data-name="Path 5895" d="M64.485,24.852h3.882a.485.485,0,0,0,.485-.485V20.485A.485.485,0,0,0,68.367,20H64.485a.485.485,0,0,0-.485.485v3.882A.485.485,0,0,0,64.485,24.852Zm.485-3.882h2.911v2.911H64.97Z" transform="translate(-33.918 -11.267)" fill="#ffba50"/>
    <path id="Path_5896" data-name="Path 5896" d="M42.367,33H38.485a.485.485,0,0,0-.485.485v3.882a.485.485,0,0,0,.485.485h3.882a.485.485,0,0,0,.485-.485V33.485A.485.485,0,0,0,42.367,33Zm-.485,3.882H38.97V33.97h2.911Z" transform="translate(-20.533 -17.959)" fill="#ffba50"/>
    <path id="Path_5897" data-name="Path 5897" d="M51.485,37.852h3.882a.485.485,0,0,0,.485-.485V33.485A.485.485,0,0,0,55.367,33H51.485a.485.485,0,0,0-.485.485v3.882A.485.485,0,0,0,51.485,37.852Zm.485-3.882h2.911v2.911H51.97Z" transform="translate(-27.226 -17.959)" fill="#ffba50"/>
    <path id="Path_5898" data-name="Path 5898" d="M64.485,37.852h3.882a.485.485,0,0,0,.485-.485V33.485A.485.485,0,0,0,68.367,33H64.485a.485.485,0,0,0-.485.485v3.882A.485.485,0,0,0,64.485,37.852Zm.485-3.882h2.911v2.911H64.97Z" transform="translate(-33.918 -17.959)" fill="#ffba50"/>
    <path id="Path_5899" data-name="Path 5899" d="M42.367,46H38.485a.485.485,0,0,0-.485.485v3.882a.485.485,0,0,0,.485.485h3.882a.485.485,0,0,0,.485-.485V46.485A.485.485,0,0,0,42.367,46Zm-.485,3.882H38.97V46.97h2.911Z" transform="translate(-20.533 -24.652)" fill="#ffba50"/>
    <path id="Path_5900" data-name="Path 5900" d="M55.852,50.367V46.485A.485.485,0,0,0,55.367,46H51.485a.485.485,0,0,0-.485.485v3.882a.485.485,0,0,0,.485.485h3.882A.485.485,0,0,0,55.852,50.367Zm-.97-.485H51.97V46.97h2.911Z" transform="translate(-27.226 -24.652)" fill="#ffba50"/>
    <path id="Path_5901" data-name="Path 5901" d="M64.485,50.852h3.882a.485.485,0,0,0,.485-.485V46.485A.485.485,0,0,0,68.367,46H64.485a.485.485,0,0,0-.485.485v3.882A.485.485,0,0,0,64.485,50.852Zm.485-3.882h2.911v2.911H64.97Z" transform="translate(-33.918 -24.652)" fill="#ffba50"/>
    <path id="Path_5902" data-name="Path 5902" d="M45.182,34.022H41.3v-.97a2.422,2.422,0,0,0-.325-1.213.485.485,0,0,0-.84.486,1.46,1.46,0,0,1,.194.727v.97H34.508v-.97A1.457,1.457,0,0,1,35.963,31.6h2.911a.485.485,0,0,0,.485-.485V2.485A.485.485,0,0,0,38.874,2H17.526a.485.485,0,0,0-.485.485v12.13H11.7a.485.485,0,1,0,0,.97h5.337V45.667H2.97V15.585H9.763a.485.485,0,0,0,.485-.485V10.733a.48.48,0,0,0-.015-.075,4.855,4.855,0,0,0-.259-6.575.485.485,0,0,0-.686,0L3.113,10.258a.485.485,0,0,0,0,.686,4.853,4.853,0,0,0,6.165.573v3.1H2.485A.485.485,0,0,0,2,15.1V46.152a.485.485,0,0,0,.485.485H20.437a.485.485,0,0,0,.485-.485V35.963h4.852v9.7h-3.4a.485.485,0,0,0,0,.97h22.8a1.457,1.457,0,0,0,1.456-1.456v-9.7A1.457,1.457,0,0,0,45.182,34.022ZM4.163,10.58,9.61,5.133A3.882,3.882,0,0,1,4.163,10.58ZM28.289,45.667H26.745V35.478a.485.485,0,0,0-.485-.485H20.437a.485.485,0,0,0-.485.485V45.667H18.011V2.97H38.389V30.626H35.963a2.429,2.429,0,0,0-2.426,2.426v.97H29.656A1.457,1.457,0,0,0,28.2,35.478v9.7a1.439,1.439,0,0,0,.089.485Zm1.366,0a.486.486,0,0,1-.485-.485V43.775a2.433,2.433,0,0,1,1.892,1.892Zm16.011-.485a.486.486,0,0,1-.485.485H43.775a2.433,2.433,0,0,1,1.892-1.892Zm0-2.387a3.4,3.4,0,0,0-2.872,2.872H32.043a3.4,3.4,0,0,0-2.872-2.872V40.33H31.6v.485a.485.485,0,0,0,.485.485h.485v.97a.485.485,0,0,0,.97,0V41.3h.485a.485.485,0,0,0,.485-.485V40.33H40.33v.485a.485.485,0,0,0,.485.485H41.3v.97a.485.485,0,1,0,.97,0V41.3h.485a.485.485,0,0,0,.485-.485V40.33h2.426Zm-13.1-2.465V38.874h.97V40.33Zm8.733,0V38.874h.97V40.33Zm4.367-.97H43.241v-.97a.485.485,0,0,0-.485-.485H40.815a.485.485,0,0,0-.485.485v.97H34.508v-.97a.485.485,0,0,0-.485-.485H32.082a.485.485,0,0,0-.485.485v.97H29.171V35.478a.486.486,0,0,1,.485-.485H45.182a.486.486,0,0,1,.485.485Z" transform="translate(-2 -2)" fill="#ffba50"/>
    <ellipse id="Ellipse_780" data-name="Ellipse 780" cx="0.774" cy="0.387" rx="0.774" ry="0.387" transform="translate(18.45 31.604)" fill="#ffba50"/>
    <circle id="Ellipse_781" data-name="Ellipse 781" cx="0.387" cy="0.387" r="0.387" transform="translate(20.771 31.604)" fill="#ffba50"/>
    <circle id="Ellipse_782" data-name="Ellipse 782" cx="0.387" cy="0.387" r="0.387" transform="translate(23.092 31.604)" fill="#ffba50"/>
  </g>
</svg>
