<svg xmlns="http://www.w3.org/2000/svg" width="101" height="101" viewBox="0 0 101 101">
  <g id="Group_88717" data-name="Group 88717" transform="translate(-125 -302)">
    <g id="Group_88716" data-name="Group 88716" transform="translate(125 302)">
      <path id="Path_5854" data-name="Path 5854" d="M50.5,0A50.5,50.5,0,1,1,0,50.5,50.5,50.5,0,0,1,50.5,0Z" fill="#61d17f" opacity="0.2"/>
      <circle id="Ellipse_779" data-name="Ellipse 779" cx="39" cy="39" r="39" transform="translate(11.5 11.5)" fill="#61d17f" opacity="0.2"/>
      <ellipse id="Ellipse_778" data-name="Ellipse 778" cx="24" cy="24.5" rx="24" ry="24.5" transform="translate(26.5 26.5)" fill="#61d17f"/>
    </g>
    <g id="Group_88715" data-name="Group 88715" transform="translate(149.82 324.032)">
      <g id="Group_88714" data-name="Group 88714" transform="translate(0 0)">
        <g id="Group_88713" data-name="Group 88713" transform="translate(0 0)">
          <path id="Path_5852" data-name="Path 5852" d="M89.837,7.183,66.142.075a1.769,1.769,0,0,0-1.017,0l-23.7,7.109a1.77,1.77,0,0,0-1.261,1.7V34.944c0,3.39,1.373,6.861,4.079,10.315a42.17,42.17,0,0,0,8.5,7.874A76.258,76.258,0,0,0,64.91,60.255a1.769,1.769,0,0,0,1.446,0,76.267,76.267,0,0,0,12.162-7.122,42.173,42.173,0,0,0,8.5-7.874C89.726,41.8,91.1,38.334,91.1,34.944V8.878A1.769,1.769,0,0,0,89.837,7.183Z" transform="translate(-40.168 0)" fill="#61d17f"/>
        </g>
      </g>
    </g>
    <path id="Path_5853" data-name="Path 5853" d="M0,0V7.861l19.889-.62" transform="translate(166.211 353.483) rotate(-40)" fill="none" stroke="#fff" stroke-linecap="round" stroke-width="3.5"/>
  </g>
</svg>
