<svg id="Group_88869" data-name="Group 88869" xmlns="http://www.w3.org/2000/svg" width="44.361" height="46.666" viewBox="0 0 44.361 46.666">
  <g id="Group_88868" data-name="Group 88868" transform="translate(0 0)">
    <path id="Path_5903" data-name="Path 5903" d="M218.864,57.534h11.349a.7.7,0,0,0,0-1.392H218.864a.7.7,0,0,0,0,1.392Z" transform="translate(-199.08 -50.933)" fill="#ffba50"/>
    <path id="Path_5904" data-name="Path 5904" d="M218.864,84.867h11.349a.7.7,0,1,0,0-1.392H218.864a.7.7,0,0,0,0,1.392Z" transform="translate(-199.08 -75.731)" fill="#ffba50"/>
    <path id="Path_5905" data-name="Path 5905" d="M218.864,131.3h11.349a.7.7,0,0,0,0-1.392H218.864a.7.7,0,0,0,0,1.392Z" transform="translate(-199.08 -117.854)" fill="#ffba50"/>
    <path id="Path_5906" data-name="Path 5906" d="M218.864,158.632h11.349a.7.7,0,1,0,0-1.392H218.864a.7.7,0,0,0,0,1.392Z" transform="translate(-199.08 -142.652)" fill="#ffba50"/>
    <path id="Path_5907" data-name="Path 5907" d="M218.864,205.064h11.349a.7.7,0,1,0,0-1.392H218.864a.7.7,0,1,0,0,1.392Z" transform="translate(-199.08 -184.777)" fill="#ffba50"/>
    <path id="Path_5908" data-name="Path 5908" d="M218.864,232.4h11.349a.7.7,0,0,0,0-1.392H218.864a.7.7,0,0,0,0,1.392Z" transform="translate(-199.08 -209.575)" fill="#ffba50"/>
    <path id="Path_5909" data-name="Path 5909" d="M218.864,278.83h11.349a.7.7,0,0,0,0-1.392H218.864a.7.7,0,0,0,0,1.392Z" transform="translate(-199.08 -251.699)" fill="#ffba50"/>
    <path id="Path_5910" data-name="Path 5910" d="M218.864,306.163h11.349a.7.7,0,1,0,0-1.392H218.864a.7.7,0,1,0,0,1.392Z" transform="translate(-199.08 -276.496)" fill="#ffba50"/>
    <path id="Path_5911" data-name="Path 5911" d="M145.067,63.126a.7.7,0,0,0,.984,0l2.62-2.62a.7.7,0,1,0-.984-.984l-2.128,2.128-.869-.869a.7.7,0,1,0-.984.984Z" transform="translate(-131.341 -53.815)" fill="#ffba50"/>
    <path id="Path_5912" data-name="Path 5912" d="M145.067,136.892a.7.7,0,0,0,.984,0l2.62-2.62a.7.7,0,0,0-.984-.984l-2.128,2.128-.869-.869a.7.7,0,1,0-.984.984Z" transform="translate(-131.341 -120.737)" fill="#ffba50"/>
    <path id="Path_5913" data-name="Path 5913" d="M147.687,207.052l-2.128,2.128-.869-.869a.7.7,0,1,0-.984.984l1.361,1.361a.7.7,0,0,0,.984,0l2.62-2.62a.7.7,0,0,0-.984-.984Z" transform="translate(-131.342 -187.658)" fill="#ffba50"/>
    <path id="Path_5914" data-name="Path 5914" d="M145.067,284.422a.7.7,0,0,0,.984,0l2.62-2.62a.7.7,0,0,0-.984-.984l-2.128,2.128-.869-.869a.7.7,0,1,0-.984.984Z" transform="translate(-131.341 -254.58)" fill="#ffba50"/>
    <path id="Path_5915" data-name="Path 5915" d="M15.609,37.765H29.883v1.864a2.171,2.171,0,0,1-.963,1.817l-1.751,1.13H26.029a1.562,1.562,0,0,0-1.56,1.56v.968a1.562,1.562,0,0,0,1.56,1.56h6.95a.7.7,0,0,0,0-1.392h-6.95a.169.169,0,0,1-.169-.169v-.968a.169.169,0,0,1,.169-.169H43.176a.169.169,0,0,1,.169.169v.968a.169.169,0,0,1-.169.169h-6.95a.7.7,0,1,0,0,1.392h6.95a1.562,1.562,0,0,0,1.56-1.56v-.968a1.562,1.562,0,0,0-1.56-1.56H42.035l-1.751-1.13a2.171,2.171,0,0,1-.963-1.817V37.765H53.6a3.191,3.191,0,0,0,3.187-3.187V23.936a.7.7,0,0,0-1.392,0V34.578a1.8,1.8,0,0,1-1.8,1.8H15.609a1.8,1.8,0,0,1-1.8-1.8V8.814a1.8,1.8,0,0,1,1.8-1.8h4.463V8.324h-3.9a1.055,1.055,0,0,0-1.054,1.054V34.014a1.055,1.055,0,0,0,1.054,1.054H53.031a1.055,1.055,0,0,0,1.054-1.054V9.378a1.055,1.055,0,0,0-1.054-1.054h-3.9V7.018H53.6a1.8,1.8,0,0,1,1.8,1.8V20.688a.7.7,0,0,0,1.392,0V8.814A3.191,3.191,0,0,0,53.6,5.627H49.132V1.785A1.787,1.787,0,0,0,47.347,0H21.858a1.787,1.787,0,0,0-1.785,1.785V5.627H15.609a3.191,3.191,0,0,0-3.187,3.187V34.578a3.191,3.191,0,0,0,3.187,3.188Zm22.321,0v1.864a3.53,3.53,0,0,0,1.54,2.948H29.734a3.531,3.531,0,0,0,1.54-2.948V37.765ZM16.511,9.715h3.562V33.676H16.511Zm36.184,0V33.676H49.132V9.715Zm-31.23-7.93a.394.394,0,0,1,.394-.394H47.347a.394.394,0,0,1,.394.394V33.676H21.464V1.785Z" transform="translate(-12.422 0)" fill="#ffba50"/>
  </g>
</svg>
