<svg id="Group_88740" data-name="Group 88740" xmlns="http://www.w3.org/2000/svg" width="48.406" height="48.406" viewBox="0 0 48.406 48.406">
  <g id="Group_88733" data-name="Group 88733" transform="translate(0 16.135)">
    <g id="Group_88732" data-name="Group 88732">
      <path id="Path_5926" data-name="Path 5926" d="M29.85,172.1h-.887a.794.794,0,0,1-.747-.521c-.1-.258-.2-.511-.318-.761a.8.8,0,0,1,.161-.9l.633-.633a2.426,2.426,0,0,0,0-3.42l-2.28-2.28a2.426,2.426,0,0,0-3.421,0l-.632.632a.8.8,0,0,1-.9.161c-.25-.114-.5-.219-.762-.323a.793.793,0,0,1-.524-.749v-.887a2.42,2.42,0,0,0-2.42-2.42H14.522a2.42,2.42,0,0,0-2.42,2.42v.887a.794.794,0,0,1-.521.747c-.258.1-.511.2-.761.318a.8.8,0,0,1-.9-.161l-.633-.632a2.426,2.426,0,0,0-3.42,0l-2.28,2.287a2.426,2.426,0,0,0,0,3.421l.632.633a.8.8,0,0,1,.161.9c-.114.25-.219.5-.319.762a.793.793,0,0,1-.753.52H2.42A2.42,2.42,0,0,0,0,174.522v3.227a2.42,2.42,0,0,0,2.42,2.42h.887a.794.794,0,0,1,.747.521c.1.258.2.511.318.761a.8.8,0,0,1-.161.9l-.632.633a2.426,2.426,0,0,0,0,3.42l2.28,2.28a2.426,2.426,0,0,0,3.421,0l.632-.632a.8.8,0,0,1,.9-.161c.25.114.5.219.762.323a.793.793,0,0,1,.528.749v.887a2.42,2.42,0,0,0,2.42,2.42h3.227a2.42,2.42,0,0,0,2.42-2.42v-.887a.794.794,0,0,1,.521-.747c.258-.1.511-.2.761-.318a.8.8,0,0,1,.9.161l.633.633a2.427,2.427,0,0,0,3.42,0l2.28-2.28a2.426,2.426,0,0,0,0-3.421l-.632-.632a.8.8,0,0,1-.161-.9c.114-.25.219-.5.323-.762a.793.793,0,0,1,.749-.524h.887a2.42,2.42,0,0,0,2.42-2.42v-3.227A2.42,2.42,0,0,0,29.85,172.1Zm.807,5.647a.807.807,0,0,1-.807.807h-.887a2.428,2.428,0,0,0-2.259,1.56q-.128.339-.278.667a2.427,2.427,0,0,0,.484,2.707l.631.632a.807.807,0,0,1,0,1.141h0l-2.28,2.28a.807.807,0,0,1-1.141,0l-.632-.632a2.425,2.425,0,0,0-2.707-.484c-.219.1-.441.192-.666.278a2.428,2.428,0,0,0-1.559,2.257v.887a.807.807,0,0,1-.807.807H14.522a.807.807,0,0,1-.807-.807v-.887a2.428,2.428,0,0,0-1.56-2.259q-.339-.128-.667-.278a2.428,2.428,0,0,0-2.707.484l-.632.631a.807.807,0,0,1-1.141,0h0l-2.28-2.277a.807.807,0,0,1,0-1.141l.632-.633a2.427,2.427,0,0,0,.484-2.707c-.1-.219-.192-.441-.278-.666a2.428,2.428,0,0,0-2.257-1.562H2.42a.807.807,0,0,1-.807-.807v-3.227a.807.807,0,0,1,.807-.807h.887a2.428,2.428,0,0,0,2.259-1.56q.128-.339.278-.667a2.428,2.428,0,0,0-.484-2.708l-.634-.632a.807.807,0,0,1,0-1.141h0l2.28-2.28a.807.807,0,0,1,1.141,0l.633.632a2.425,2.425,0,0,0,2.707.484c.219-.1.441-.192.666-.278a2.428,2.428,0,0,0,1.563-2.257v-.887a.807.807,0,0,1,.807-.807h3.227a.807.807,0,0,1,.807.807v.887a2.428,2.428,0,0,0,1.56,2.259q.339.128.667.278a2.425,2.425,0,0,0,2.707-.484l.632-.631a.812.812,0,0,1,1.142,0l2.28,2.28a.807.807,0,0,1,0,1.141l-.632.632a2.428,2.428,0,0,0-.484,2.707c.1.219.192.441.278.666a2.428,2.428,0,0,0,2.257,1.559h.887a.807.807,0,0,1,.807.807v3.227Z" transform="translate(0 -160)" fill="#ffba50"/>
    </g>
  </g>
  <g id="Group_88735" data-name="Group 88735" transform="translate(8.87 25.01)">
    <g id="Group_88734" data-name="Group 88734">
      <path id="Path_5927" data-name="Path 5927" d="M102.468,254.938c-.008-.194-.022-.386-.045-.578s-.056-.411-.1-.612c-.028-.132-.065-.261-.1-.392q-.068-.249-.152-.491c-.04-.112-.081-.224-.123-.334a7.188,7.188,0,0,0-.356-.755c-.01-.019-.017-.039-.027-.057a7.156,7.156,0,0,0-.726-1.058c-.023-.029-.05-.056-.074-.085-.111-.131-.226-.259-.346-.381-.063-.065-.129-.127-.2-.19s-.161-.149-.242-.22q-.147-.128-.3-.247l-.132-.1A7.21,7.21,0,0,0,95.224,248c-.081,0-.161.012-.242.015-.172,0-.344.015-.518.032-.091.01-.183.02-.274.033a7.4,7.4,0,0,0-.782.146,7.265,7.265,0,0,0,.006,14.069.183.183,0,0,1,.04.007,7.682,7.682,0,0,0,.845.161c.188.023.376.028.565.037.126.006.242.025.374.025.23,0,.469-.015.712-.039a.782.782,0,0,0,.081-.011c.2-.022.395-.051.6-.091.081-.015.156-.036.233-.053.142-.033.283-.068.428-.111.113-.034.223-.073.333-.112s.225-.081.34-.124.211-.094.315-.142c.136-.062.27-.123.4-.2h0a9.546,9.546,0,0,0,2.068-1.493,2.538,2.538,0,0,0,.432-.529,8.613,8.613,0,0,0,1.215-3.316c.023-.156.043-.311.055-.47s.019-.291.023-.436c0-.046.006-.09.006-.136C102.484,255.153,102.473,255.048,102.468,254.938Zm-1.608.528c0,.067-.006.134-.01.2-.015.2-.04.39-.073.586a5.659,5.659,0,0,1-2.835,3.953c-.1.052-.2.1-.3.147l-.067.032a5.827,5.827,0,0,1-1.472.445l-.108.017c-.1.014-.2.027-.3.035-.13.011-.261.018-.394.02h-.169a5.671,5.671,0,0,1-.571-.035l-.1-.011a5.946,5.946,0,0,1-.659-.124,5.647,5.647,0,0,1-.006-10.94h0a5.841,5.841,0,0,1,1.417-.177,5.573,5.573,0,0,1,.69.047c.061.007.122.019.182.027.174.027.347.062.517.106.056.015.111.027.166.043a5.7,5.7,0,0,1,1.23.518c.062.036.123.074.184.112.127.081.251.161.373.253.065.048.132.094.194.145a5.807,5.807,0,0,1,.454.4c.057.058.11.122.165.182.093.1.183.2.269.313.06.075.117.152.173.231.081.116.161.237.234.36l.122.2a5.535,5.535,0,0,1,.278.591c.032.081.06.161.089.242.052.148.1.3.137.45.02.081.043.152.06.231a5.681,5.681,0,0,1,.1.661c0,.059,0,.119.009.177C100.864,255.093,100.868,255.279,100.86,255.467Z" transform="translate(-87.959 -248)" fill="#ffba50"/>
    </g>
  </g>
  <g id="Group_88737" data-name="Group 88737" transform="translate(8.8)">
    <g id="Group_88736" data-name="Group 88736">
      <path id="Path_5928" data-name="Path 5928" d="M124.447,16.942h-2.537a.787.787,0,0,1-.752-.529,16.805,16.805,0,0,0-.906-2.187.79.79,0,0,1,.155-.911l1.8-1.8a2.42,2.42,0,0,0,0-3.421l-3.43-3.425a2.42,2.42,0,0,0-3.421,0l-1.8,1.8a.79.79,0,0,1-.91.156,16.761,16.761,0,0,0-2.188-.911.787.787,0,0,1-.532-.752V2.42A2.42,2.42,0,0,0,107.5,0h-4.841a2.42,2.42,0,0,0-2.42,2.42V4.958a.787.787,0,0,1-.529.752,16.813,16.813,0,0,0-2.187.91.788.788,0,0,1-.911-.155l-1.8-1.8a2.425,2.425,0,0,0-3.421,0L87.97,8.089a2.42,2.42,0,0,0,0,3.422l2.645,2.65a.807.807,0,0,0,1.142-1.139l-2.647-2.649a.807.807,0,0,1,0-1.141l3.424-3.424a.807.807,0,0,1,1.141,0l1.8,1.8a2.4,2.4,0,0,0,2.772.455,15.265,15.265,0,0,1,1.977-.822,2.4,2.4,0,0,0,1.63-2.283V2.42a.807.807,0,0,1,.807-.807H107.5a.807.807,0,0,1,.807.807V4.958a2.4,2.4,0,0,0,1.63,2.282,15.216,15.216,0,0,1,1.978.823,2.4,2.4,0,0,0,2.771-.456l1.8-1.8a.807.807,0,0,1,1.141,0l3.424,3.425a.807.807,0,0,1,0,1.14l-1.8,1.8a2.4,2.4,0,0,0-.455,2.772,15.261,15.261,0,0,1,.822,1.977,2.4,2.4,0,0,0,2.283,1.63h2.537a.807.807,0,0,1,.807.807V24.2a.807.807,0,0,1-.807.807h-2.537a2.4,2.4,0,0,0-2.282,1.63,15.2,15.2,0,0,1-.823,1.978,2.4,2.4,0,0,0,.456,2.771l1.8,1.8a.807.807,0,0,1,0,1.141l-3.426,3.424a.807.807,0,0,1-1.14,0l-2.651-2.645a.807.807,0,0,0-1.159,1.123l.02.02,2.65,2.645a2.42,2.42,0,0,0,3.421,0l3.424-3.423a2.42,2.42,0,0,0,0-3.422l-1.8-1.8a.791.791,0,0,1-.156-.91,16.762,16.762,0,0,0,.911-2.188.787.787,0,0,1,.752-.532h2.537a2.42,2.42,0,0,0,2.42-2.42V19.362A2.42,2.42,0,0,0,124.447,16.942Z" transform="translate(-87.261)" fill="#ffba50"/>
    </g>
  </g>
  <g id="Group_88739" data-name="Group 88739" transform="translate(18.981 11.3)">
    <g id="Group_88738" data-name="Group 88738">
      <path id="Path_5929" data-name="Path 5929" d="M203.277,115.116a10.5,10.5,0,0,0-14.831,0,.807.807,0,0,0,1.141,1.141,8.874,8.874,0,1,1,12.634,12.466l-.084.084a.807.807,0,1,0,1.121,1.161l.02-.02A10.5,10.5,0,0,0,203.277,115.116Z" transform="translate(-188.219 -112.049)" fill="#ffba50"/>
    </g>
  </g>
</svg>
