<svg id="Group_88839" data-name="Group 88839" xmlns="http://www.w3.org/2000/svg" width="56.918" height="50.024" viewBox="0 0 56.918 50.024">
  <path id="Path_6007" data-name="Path 6007" d="M247.107,38.892a1.112,1.112,0,0,0,1.112-1.112V32.118a1.112,1.112,0,1,0-2.223,0v5.663A1.112,1.112,0,0,0,247.107,38.892Z" transform="translate(-218.648 -31.006)" fill="#fff"/>
  <path id="Path_6008" data-name="Path 6008" d="M155.76,67.169a1.112,1.112,0,1,0,1.881-1.185l-2.962-4.7a1.112,1.112,0,1,0-1.881,1.185Z" transform="translate(-135.66 -57.456)" fill="#fff"/>
  <path id="Path_6009" data-name="Path 6009" d="M313.266,67.518a1.111,1.111,0,0,0,1.533-.349l2.959-4.7a1.112,1.112,0,1,0-1.882-1.185l-2.959,4.7a1.112,1.112,0,0,0,.349,1.533Z" transform="translate(-277.979 -57.457)" fill="#fff"/>
  <path id="Path_6010" data-name="Path 6010" d="M56.559,133.879l-1.932-3.412a1.112,1.112,0,1,0-1.935,1.1l1.931,3.411a.548.548,0,0,1,.048.42.524.524,0,0,1-.249.318l-2.977,1.649a.564.564,0,0,1-.754-.2l-.756-1.338-.01-.017-7.818-13.828a.541.541,0,0,1-.049-.416.521.521,0,0,1,.248-.317l2.98-1.649a.553.553,0,0,1,.751.2l1.742,3.079a1.112,1.112,0,1,0,1.935-1.1L47.973,118.7a2.783,2.783,0,0,0-3.763-1.053L41.23,119.3a2.762,2.762,0,0,0-1.123,3.651l-1.642.476a6.464,6.464,0,0,1-1.359.312h0a2.775,2.775,0,0,1-.844-.254c-.229-.087-.514-.195-.865-.317l-2.909-1.017a6.664,6.664,0,0,0-3.385-.436l-4.96.444c-2.261.2-3.7.71-4.5,1.595l-2.827-.819a2.761,2.761,0,0,0-1.129-3.634l-2.979-1.65A2.785,2.785,0,0,0,8.943,118.7L.361,133.878a2.765,2.765,0,0,0,1.055,3.779l2.979,1.65a2.788,2.788,0,0,0,3.765-1.052l.315-.557a5.221,5.221,0,0,1,2.071,1.578,3.731,3.731,0,0,0,2.412,6.131,3.727,3.727,0,0,0,3.282,4.1,3.726,3.726,0,0,0,3.282,4.1,3.738,3.738,0,0,0,6.051,3.309l2.328-1.862a3.748,3.748,0,0,0,.5-.486l1.33,1.062a3.735,3.735,0,0,0,6-2.2,3.716,3.716,0,0,0,1.218.2,3.85,3.85,0,0,0,.423-.023,3.73,3.73,0,0,0,3.3-4.1,3.723,3.723,0,0,0,3.282-4.1,3.737,3.737,0,0,0,2.413-6.132,5.2,5.2,0,0,1,2.069-1.578l.315.558a2.788,2.788,0,0,0,3.765,1.051l2.977-1.649a2.769,2.769,0,0,0,1.06-3.777Zm-50.335,3.28a.563.563,0,0,1-.753.2l-2.978-1.65a.523.523,0,0,1-.247-.317.546.546,0,0,1,.05-.42l8.584-15.18a.543.543,0,0,1,.476-.272.57.57,0,0,1,.277.072l2.978,1.649h0a.521.521,0,0,1,.247.316.543.543,0,0,1-.05.417Zm8.112,5.721a1.513,1.513,0,0,1-1.891-2.362l4.162-3.327a1.52,1.52,0,0,1,2.131.238,1.514,1.514,0,0,1-.237,2.122l-.019.017-4.145,3.312Zm1.152,3.861a1.518,1.518,0,0,1,.237-2.125h0l5.995-4.79a1.519,1.519,0,0,1,2.131.238,1.519,1.519,0,0,1-.238,2.127l-5.993,4.788a1.52,1.52,0,0,1-2.132-.237Zm4.3,4.657a1.513,1.513,0,0,1-.778-2.683h0l4.149-3.314.015-.011a1.519,1.519,0,0,1,2.13.236,1.518,1.518,0,0,1-.239,2.127L20.9,151.078A1.509,1.509,0,0,1,19.786,151.4Zm7.283.9a1.5,1.5,0,0,1-.557,1.014l-2.328,1.863a1.519,1.519,0,0,1-2.132-.236,1.518,1.518,0,0,1,.236-2.124h0l2.327-1.86,0,0a1.52,1.52,0,0,1,2.132.238A1.5,1.5,0,0,1,27.07,152.3Zm17.64-9.656a1.524,1.524,0,0,1-2.13.236h0L39.6,140.5a1.112,1.112,0,1,0-1.388,1.737l2.974,2.376a1.513,1.513,0,1,1-1.892,2.362L36.071,144.4a1.112,1.112,0,0,0-1.387,1.738l3.225,2.574a1.515,1.515,0,0,1-1.894,2.366L34.41,149.8l-.008-.007L33.045,148.7l-.254-.2a1.112,1.112,0,0,0-1.389,1.736l1.614,1.291a1.514,1.514,0,0,1-1.9,2.361l-1.831-1.463a3.72,3.72,0,0,0-2.137-3.674,3.731,3.731,0,0,0-1.449-5.564,3.737,3.737,0,0,0-4.5-5.619,3.707,3.707,0,0,0-.73-1.53,3.747,3.747,0,0,0-5.255-.586l-2.977,2.379a7.325,7.325,0,0,0-2.67-2.079l6.123-10.83,3.26.945a3.636,3.636,0,0,0,.09.552c.789,3.245,3.777,4.757,7.8,3.947,3.387-.682,4.782.334,7.559,2.356.288.21.588.428.9.652,2,1.433,4.132,3.117,5.563,4.259l3.608,2.884a1.518,1.518,0,0,1,.235,2.126Zm-.035-4.812L42.253,135.9c-1.451-1.157-3.615-2.865-5.655-4.328-.309-.221-.6-.436-.887-.643-2.88-2.1-4.961-3.612-9.307-2.738-1.33.268-4.5.581-5.2-2.292-.1-.406,0-.545.044-.6.149-.207.747-.712,3.087-.919l4.965-.444a4.553,4.553,0,0,1,2.45.32l2.909,1.017c.323.113.582.211.81.3,1.4.531,1.772.53,3.612,0l2.145-.621,6.115,10.815A7.3,7.3,0,0,0,44.675,137.832Z" transform="translate(0 -107.708)" fill="#fff"/>
  <path id="Path_6011" data-name="Path 6011" d="M451.682,193.809a1.113,1.113,0,1,0-1.112-1.113v0A1.11,1.11,0,0,0,451.682,193.809Z" transform="translate(-400.481 -173.733)" fill="#fff"/>
</svg>
