<svg id="Group_88873" data-name="Group 88873" xmlns="http://www.w3.org/2000/svg" width="48.238" height="53.692" viewBox="0 0 48.238 53.692">
  <g id="Group_88731" data-name="Group 88731" transform="translate(0)">
    <path id="Path_5916" data-name="Path 5916" d="M161.049,198.1A1.049,1.049,0,1,0,160,197.049,1.049,1.049,0,0,0,161.049,198.1Zm0,0" transform="translate(-143.221 -175.446)" fill="#ffba50"/>
    <path id="Path_5917" data-name="Path 5917" d="M221.049,9.019A1.049,1.049,0,0,0,222.1,7.97V1.049a1.049,1.049,0,0,0-2.1,0V7.97A1.049,1.049,0,0,0,221.049,9.019Zm0,0" transform="translate(-196.929)" fill="#ffba50"/>
    <path id="Path_5918" data-name="Path 5918" d="M220,427.049v6.921a1.049,1.049,0,1,0,2.1,0v-6.921a1.049,1.049,0,1,0-2.1,0Zm0,0" transform="translate(-196.929 -381.327)" fill="#ffba50"/>
    <path id="Path_5919" data-name="Path 5919" d="M35.046,82.529a1.049,1.049,0,1,0,1.483-1.483L32.079,76.6A1.049,1.049,0,1,0,30.6,78.079Zm0,0" transform="translate(-27.113 -68.289)" fill="#ffba50"/>
    <path id="Path_5920" data-name="Path 5920" d="M367.589,383.587a1.049,1.049,0,0,0,0,1.483l4.449,4.449a1.049,1.049,0,1,0,1.483-1.483l-4.449-4.449A1.049,1.049,0,0,0,367.589,383.587Zm0,0" transform="translate(-328.766 -343.087)" fill="#ffba50"/>
    <path id="Path_5921" data-name="Path 5921" d="M369.072,82.529l4.449-4.449a1.049,1.049,0,1,0-1.483-1.483l-4.449,4.449a1.049,1.049,0,0,0,1.483,1.483Zm0,0" transform="translate(-328.766 -68.289)" fill="#ffba50"/>
    <path id="Path_5922" data-name="Path 5922" d="M35.046,383.589,30.6,388.038a1.049,1.049,0,0,0,1.483,1.483l4.45-4.449a1.049,1.049,0,0,0-1.483-1.483Zm0,0" transform="translate(-27.113 -343.088)" fill="#ffba50"/>
    <path id="Path_5923" data-name="Path 5923" d="M6.7,138.3c5.465,4.621,11.491,7.064,17.425,7.064s11.96-2.443,17.425-7.064a38.067,38.067,0,0,0,6.516-7.032,1.049,1.049,0,0,0,0-1.171,38.081,38.081,0,0,0-6.516-7.032C36.08,118.443,30.055,116,24.12,116S12.16,118.443,6.7,123.064A38.1,38.1,0,0,0,.179,130.1a1.049,1.049,0,0,0,0,1.171A38.1,38.1,0,0,0,6.7,138.3Zm1.354-13.633c3.543-3,9.208-6.568,16.071-6.568,6.842,0,12.492,3.552,16.027,6.531a38.222,38.222,0,0,1,5.751,6.054,38.107,38.107,0,0,1-5.707,6.015c-3.543,3-9.208,6.568-16.071,6.568-6.842,0-12.492-3.552-16.026-6.531a38.2,38.2,0,0,1-5.751-6.054,38.06,38.06,0,0,1,5.706-6.015Zm0,0" transform="translate(-0.001 -103.836)" fill="#ffba50"/>
    <path id="Path_5924" data-name="Path 5924" d="M149.438,184.876a9.438,9.438,0,1,0-3.378-18.253,1.052,1.052,0,1,0,.861,1.917,7.342,7.342,0,1,1-4.824,6.9,7.635,7.635,0,0,1,.121-1.339,1.049,1.049,0,0,0-2.062-.386,9.448,9.448,0,0,0,9.281,11.163Zm0,0" transform="translate(-125.319 -148.592)" fill="#ffba50"/>
    <path id="Path_5925" data-name="Path 5925" d="M198.389,220.195a4.195,4.195,0,1,0-4.195,4.195A4.2,4.2,0,0,0,198.389,220.195Zm-6.292,0a2.1,2.1,0,1,1,2.1,2.1A2.1,2.1,0,0,1,192.1,220.195Zm0,0" transform="translate(-170.075 -193.349)" fill="#ffba50"/>
  </g>
</svg>
